<svg id="Layer_1" data-name="Layer 1" xmlns="http://www.w3.org/2000/svg" viewBox="0 0 288 384"><path d="M236,120V12A12,12,0,0,0,224,0H200a12,12,0,0,0-12,12V122.2a35.6,35.6,0,0,1,12-2.2Zm96,72a48,48,0,0,0-48-48h-84.1A11.89,11.89,0,0,0,188,155.89v.42A35.7,35.7,0,0,0,223.64,192h26.45c7.26,0,9.9,2.68,9.9,6v12.15a6.16,6.16,0,0,1-5.91,6c-33.39,1.71-48.12,18.53-72,54.41l-4.73,7.11a6,6,0,0,1-8.32,1.66h0l-10-6.66a6,6,0,0,1-1.67-8.31h0l4.73-7.1c11.8-17.7,22.65-32.45,35.49-43.56a48.26,48.26,0,0,1-29.16-25.84A35.51,35.51,0,0,1,152,192H128a35.75,35.75,0,0,1-24-9.36A35.73,35.73,0,0,1,80,192H56a35.43,35.43,0,0,1-12-2.21v58.45a96,96,0,0,0,28.12,67.88L92,336v48H284V336l26.93-26.94A72,72,0,0,0,332,258.16V192Zm-24-67.57V36a12,12,0,0,0-12-12H272a12,12,0,0,0-12,12v84h24A71.15,71.15,0,0,1,308,124.42ZM56,168H80a12,12,0,0,0,12-12V60A12,12,0,0,0,80,48H56A12,12,0,0,0,44,60v96A12,12,0,0,0,56,168Zm72,0h24a12,12,0,0,0,12-12V36a12,12,0,0,0-12-12H128a12,12,0,0,0-12,12V156A12,12,0,0,0,128,168Z" transform="translate(-44)"/></svg>